<svg width="37" height="37" viewBox="0 0 37 37" fill="none" xmlns="http://www.w3.org/2000/svg">
<circle cx="18.5" cy="18.5" r="18.5" fill="#03A9F4"/>
<path d="M27.7334 9.25483C27.6153 9.13729 27.4661 9.05592 27.3034 9.02027C27.1406 8.98461 26.9711 8.99617 26.8147 9.05358L7.56468 16.0536C7.39867 16.1166 7.25574 16.2285 7.15488 16.3747C7.05402 16.5208 7 16.6941 7 16.8717C7 17.0493 7.05402 17.2226 7.15488 17.3687C7.25574 17.5149 7.39867 17.6269 7.56468 17.6898L15.0809 20.6911L20.6284 15.1261L21.8622 16.3598L16.2884 21.9336L19.2984 29.4498C19.3633 29.6126 19.4755 29.7522 19.6206 29.8505C19.7657 29.9488 19.9369 30.0012 20.1122 30.0011C20.289 29.9975 20.4606 29.9403 20.6043 29.8372C20.748 29.7341 20.8571 29.5899 20.9172 29.4236L27.9172 10.1736C27.9768 10.0188 27.9912 9.85021 27.9586 9.68754C27.9261 9.52487 27.848 9.3748 27.7334 9.25483Z" fill="white"/>
</svg>
