<svg width="28" height="29" viewBox="0 0 28 29" fill="none" xmlns="http://www.w3.org/2000/svg">
<path d="M8.16699 21.5002C6.88366 21.5002 5.84533 22.5502 5.84533 23.8335C5.84533 25.1168 6.88366 26.1668 8.16699 26.1668C9.45033 26.1668 10.5003 25.1168 10.5003 23.8335C10.5003 22.5502 9.45033 21.5002 8.16699 21.5002ZM19.8337 21.5002C18.5503 21.5002 17.512 22.5502 17.512 23.8335C17.512 25.1168 18.5503 26.1668 19.8337 26.1668C21.117 26.1668 22.167 25.1168 22.167 23.8335C22.167 22.5502 21.117 21.5002 19.8337 21.5002ZM18.142 15.6668C19.017 15.6668 19.787 15.1885 20.1837 14.4652L24.3603 6.8935C24.4586 6.71666 24.5091 6.51721 24.5067 6.31489C24.5042 6.11257 24.449 5.9144 24.3465 5.73997C24.244 5.56554 24.0976 5.42091 23.9221 5.32038C23.7465 5.21986 23.5477 5.16693 23.3453 5.16683H6.07866L4.98199 2.8335H1.16699V5.16683H3.50033L7.70033 14.0218L6.12533 16.8685C5.27366 18.4318 6.39366 20.3335 8.16699 20.3335H22.167V18.0002H8.16699L9.45033 15.6668H18.142ZM7.18699 7.50016H21.362L18.142 13.3335H9.95199L7.18699 7.50016Z" fill="white"/>
</svg>
