<svg width="20" height="20" viewBox="0 0 20 20" fill="none" xmlns="http://www.w3.org/2000/svg">
<path d="M10 0.625C5.6875 0.625 2.1875 4.125 2.1875 8.4375C2.1875 12.75 5.6875 16.25 10 16.25C14.3125 16.25 17.8125 12.75 17.8125 8.4375C17.8125 4.125 14.3125 0.625 10 0.625ZM10 14.6875C6.5625 14.6875 3.75 11.875 3.75 8.4375C3.75 5 6.5625 2.1875 10 2.1875C13.4375 2.1875 16.25 5 16.25 8.4375C16.25 11.875 13.4375 14.6875 10 14.6875Z" fill="white"/>
<path d="M7.9375 6.03125C8.21875 5.71875 8.5625 5.46875 8.96875 5.3125C9.375 5.125 9.78125 5.03125 10.2188 5.03125C10.75 5.03125 11.2813 5.15625 11.7188 5.4375C12.1563 5.6875 12.5625 6.0625 12.8437 6.46875L13.9688 5.625C13.5313 5.0625 13 4.5625 12.375 4.25C11.7187 3.90625 11.0312 3.75 10.25 3.75C9.625 3.75 9 3.875 8.4375 4.125C7.875 4.375 7.375 4.71875 6.96875 5.125C6.5625 5.5625 6.21875 6.03125 5.96875 6.625C5.71875 7.1875 5.59375 7.8125 5.59375 8.4375C5.59375 9.09375 5.71875 9.6875 5.96875 10.25C6.21875 10.8125 6.53125 11.3125 6.96875 11.75C7.375 12.1875 7.875 12.5 8.4375 12.75C9 13 9.59375 13.125 10.25 13.125C11.0312 13.125 11.75 12.9688 12.375 12.625C13 12.2813 13.5625 11.8125 13.9688 11.25L12.8437 10.4062C12.5625 10.8437 12.1875 11.1875 11.7188 11.4375C11.25 11.6875 10.75 11.8125 10.2188 11.8125C9.78125 11.8125 9.375 11.7188 8.96875 11.5313C8.59375 11.3438 8.25 11.0937 7.9375 10.8125C7.65625 10.5 7.40625 10.1563 7.25 9.75C7.09375 9.34375 7 8.90625 7 8.4375C7 7.96875 7.09375 7.53125 7.25 7.125C7.40625 6.71875 7.65625 6.34375 7.9375 6.03125" fill="white"/>
</svg>
