<svg width="127" height="62" viewBox="0 0 127 62" fill="none" xmlns="http://www.w3.org/2000/svg">
<path fill-rule="evenodd" clip-rule="evenodd" d="M45.5469 21.8921C45.5469 22.2523 46.9841 24.6837 47.2536 25.224L51.8348 33.4185C52.1043 33.8687 52.5534 34.8592 53.0924 34.8592H67.4647C68.0935 34.8592 69.1715 32.608 69.7104 31.7976L75.639 22.0722C75.639 21.4419 74.3815 19.2807 73.9323 18.6503L69.2613 10.3658C68.9918 9.91555 68.6325 8.83496 68.0037 8.83496H53.6313C53.0025 8.83496 51.9246 11.0862 51.3857 11.8966L47.5231 18.4702C47.1638 18.9205 45.5469 21.4419 45.5469 21.8921Z" fill="white"/>
<path fill-rule="evenodd" clip-rule="evenodd" d="M27.1319 48.9969H42.2229C43.6601 46.9258 44.9177 44.6746 46.2651 42.5134C46.8939 41.4328 47.5227 40.2621 48.2413 39.2716C48.8701 38.191 49.4989 37.0204 50.2175 36.0298L44.7381 26.2144C44.3787 25.5841 43.1212 23.603 42.9415 22.9727H27.6709C26.5031 25.1338 25.1557 27.205 23.8981 29.2761L20.0355 35.7597C19.8559 36.39 23.0897 41.7029 23.449 42.3333C23.8981 43.2338 26.9522 48.2765 27.1319 48.9969Z" fill="white"/>
<path fill-rule="evenodd" clip-rule="evenodd" d="M7.10065 26.7548H22.4611L26.3237 20.3613C30.7252 13.0673 30.5456 14.4181 29.4677 12.2569L26.683 7.48425C26.0542 6.40366 25.5153 5.32307 24.8865 4.24247C24.4373 3.52208 23.2696 1.63104 23.1797 0.910645H7.63961L0.00428776 13.6977C-0.0855396 14.1479 1.26187 16.3091 1.62118 16.8494C1.98049 17.4797 2.24997 17.93 2.51945 18.4703L4.40583 21.7121C4.85496 22.6126 6.92099 26.0344 7.10065 26.7548Z" fill="white"/>
<path d="M60.4551 49.4585H68.4531V60.2104C67.3301 60.5815 66.168 60.8696 64.9668 61.0747C63.7656 61.2798 62.418 61.3823 60.9238 61.3823C58.7461 61.3823 56.9004 60.9526 55.3867 60.0933C53.8828 59.2241 52.7402 57.9692 51.959 56.3286C51.1777 54.6782 50.7871 52.6909 50.7871 50.3667C50.7871 48.1304 51.2217 46.1919 52.0908 44.5513C52.96 42.9009 54.2246 41.6265 55.8848 40.728C57.5449 39.8198 59.5566 39.3657 61.9199 39.3657C63.082 39.3657 64.2051 39.4829 65.2891 39.7173C66.3828 39.9419 67.3838 40.2544 68.292 40.6548L67.0615 43.5552C66.3389 43.2134 65.5283 42.9253 64.6299 42.6909C63.7314 42.4565 62.7988 42.3394 61.832 42.3394C60.2988 42.3394 58.9756 42.6714 57.8623 43.3354C56.7588 43.9995 55.9092 44.937 55.3135 46.1479C54.7178 47.3491 54.4199 48.77 54.4199 50.4106C54.4199 52.0024 54.6592 53.3989 55.1377 54.6001C55.6162 55.8013 56.3633 56.7388 57.3789 57.4126C58.4043 58.0767 59.7275 58.4087 61.3486 58.4087C62.1592 58.4087 62.8477 58.3647 63.4141 58.2769C63.9805 58.189 64.5029 58.0913 64.9814 57.9839V52.4614H60.4551V49.4585ZM82.7061 42.354C81.6807 42.354 80.7627 42.5396 79.9521 42.9106C79.1514 43.2817 78.4727 43.8188 77.916 44.522C77.3594 45.2153 76.9346 46.0601 76.6416 47.0562C76.3486 48.0425 76.2021 49.1558 76.2021 50.396C76.2021 52.0562 76.4365 53.4868 76.9053 54.688C77.374 55.8794 78.0869 56.7974 79.0439 57.4419C80.001 58.0767 81.2119 58.394 82.6768 58.394C83.585 58.394 84.4688 58.3062 85.3281 58.1304C86.1875 57.9546 87.0762 57.7153 87.9941 57.4126V60.4009C87.125 60.7427 86.2461 60.9917 85.3574 61.1479C84.4688 61.3042 83.4434 61.3823 82.2812 61.3823C80.0938 61.3823 78.2773 60.9282 76.832 60.02C75.3965 59.1118 74.3223 57.8325 73.6094 56.1821C72.9062 54.5317 72.5547 52.5981 72.5547 50.3813C72.5547 48.7603 72.7793 47.2759 73.2285 45.9282C73.6777 44.5806 74.332 43.4185 75.1914 42.4419C76.0508 41.4556 77.1104 40.6987 78.3701 40.1714C79.6396 39.6343 81.0898 39.3657 82.7207 39.3657C83.7949 39.3657 84.8496 39.4878 85.8848 39.7319C86.9297 39.9663 87.8965 40.3032 88.7852 40.7427L87.5547 43.6431C86.8125 43.2915 86.0361 42.9888 85.2256 42.7349C84.415 42.481 83.5752 42.354 82.7061 42.354ZM104.723 61.0894H92.5938V39.6733H104.723V42.6323H96.1094V48.4478H104.181V51.3921H96.1094V58.1157H104.723V61.0894ZM116.778 61.0894H113.248V42.6616H106.979V39.6733H123.033V42.6616H116.778V61.0894Z" fill="white"/>
</svg>
