<svg width="20" height="21" viewBox="0 0 20 21" fill="none" xmlns="http://www.w3.org/2000/svg">
<path d="M6.987 2.56593L6.27 2.78193C5.63158 2.97446 5.06144 3.34535 4.62669 3.85097C4.19194 4.35658 3.91068 4.97586 3.816 5.63593C3.519 7.70393 4.183 10.1219 5.784 12.8949C7.381 15.6609 9.139 17.4429 11.074 18.2229C11.6957 18.4735 12.3763 18.5403 13.0349 18.4153C13.6935 18.2903 14.3023 17.9788 14.789 17.5179L15.331 17.0039C15.683 16.6708 15.902 16.2213 15.9474 15.7388C15.9929 15.2564 15.8616 14.7739 15.578 14.3809L14.222 12.5009C14.0387 12.2471 13.7805 12.057 13.4837 11.9573C13.1869 11.8576 12.8664 11.8533 12.567 11.9449L10.516 12.5719L10.463 12.5819C10.237 12.6149 9.715 12.1259 9.065 10.9999C8.385 9.82193 8.245 9.13293 8.432 8.95493L9.475 7.98193C9.85641 7.62639 10.117 7.16037 10.2201 6.64925C10.3232 6.13812 10.2637 5.60754 10.05 5.13193L9.388 3.66093C9.18894 3.21827 8.8357 2.86311 8.39413 2.66164C7.95256 2.46017 7.4528 2.42616 6.988 2.56593H6.987ZM8.477 4.07093L9.137 5.54193C9.26554 5.82716 9.30148 6.14549 9.23978 6.4522C9.17808 6.75892 9.02183 7.03859 8.793 7.25193L7.747 8.22593C7.078 8.85993 7.3 9.94193 8.2 11.4999C9.046 12.9659 9.818 13.6899 10.648 13.5639L10.772 13.5379L12.86 12.9009C12.9598 12.8703 13.0667 12.8716 13.1657 12.9048C13.2647 12.938 13.3508 13.0013 13.412 13.0859L14.768 14.9659C14.91 15.1624 14.9758 15.4037 14.9532 15.6451C14.9305 15.8864 14.821 16.1113 14.645 16.2779L14.102 16.7919C13.7543 17.121 13.3195 17.3433 12.8493 17.4324C12.379 17.5216 11.893 17.4739 11.449 17.2949C9.751 16.6109 8.146 14.9839 6.651 12.3949C5.152 9.79993 4.545 7.59293 4.806 5.77793C4.87356 5.30636 5.07445 4.86391 5.38502 4.50267C5.69559 4.14144 6.1029 3.87646 6.559 3.73893L7.276 3.52293C7.50846 3.45308 7.75839 3.47016 7.97918 3.57099C8.19997 3.67181 8.37656 3.84951 8.476 4.07093H8.477Z" fill="white"/>
</svg>
